<?xml version="1.0" encoding="UTF-8"?>
<svg id="Layer_1" xmlns="http://www.w3.org/2000/svg" version="1.1" viewBox="0 0 1024 1024">
  <!-- Generator: Adobe Illustrator 29.5.0, SVG Export Plug-In . SVG Version: 2.1.0 Build 137)  -->
  <path d="M563.99,173.99c-2.17-19.27-4.26-38.57-15.59-54.9-11.26-16.24-30.85-25.75-50.48-26.52-3.67-16.63-4.06-26.6-21.93-32.07-30.6-9.35-61.3,1.1-88.02,15.97-2.59,1.44-6.15,3.2-7.98,5.51,26-11.06,56.92-18.57,85.03-11.52,13.25,3.32,23.17,9.64,24.25,24.26-2,4.53-10.61.6-14.8.29-31.89-2.35-63.27,19.3-76.34,47.63-8.84,19.16-11.47,45.83-25.62,61.38-3.25,3.57-9.4,5.23-8.52,10.97,2.6,2.7,14.81-10.35,16.66-10.85,1.65-.45,2.54-.09,3.17,1.52.56,1.76-.6,14.03-.95,16.72-.63,4.78-4.1,22.49-6.01,25.99-.55,1.01-1.55,1.82-2.38,2.61-6.47-8.35-8.57-18.61-17.59-25.39-9.9-7.44-24.4-8.81-33.93-.11-23.32,21.28,1.11,73,32.02,72.53.49-6.19-2.4-14.97,5.16-17.34,12.35-3.88,17.34,17.27,19.33,17.32,2.57-1.4,2.03-12.52,2.5-12.99,5.54-1.46,4.89,4.55,6.82,8.69,14.08,30.2,46.7,57.46,78.39,67.61,43.18,13.82,64.67-.75,92.3-32.27,27.81-31.73,56.72-82.11,10.97-113l-5.65,10.32c-4.74,6.26-11.67,11.42-19.82,11.67-1.19-4.75,4.34-5.94,7.52-8.97,23.75-22.65,2.48-72.74-25.42-60.42-14.44,6.38-12.58,24.29-14.37,36.63-.42,2.88-2.37,9.14-4.2,3.76-1.9-5.6-2.07-15.54-1.52-21.48,2.47-26.63,30.6-41.97,50.5-20.53.96,1.03,5.03,8.58,6.48,7.01ZM558.99,107.99c-1.96-18.13-19.39-29.88-36.99-28.99-.3,1.58.33,2.19,1.72,2.77,3.44,1.44,9.1,1.87,13.28,3.72,5.08,2.25,12,7.19,15.41,11.59l6.58,10.91ZM279.99,117c1.09-1.2-7.27-8.92-8.52-9.97-25.7-21.61-59.97-18.84-83.5,4.44l-8.96,12.53c7.1-5.44,13.42-11.85,21.32-16.17,25.83-14.15,57.34-9.19,79.66,9.17ZM783.99,99.01c-18.28-4.97-38.52-5.99-57.48-5-3.54.19-28.99,2.87-29.52,4.5-.66,2.06,2.03,1.63,2.99,1.96,19.43,6.84,57.89,5.83,78.03,1.04,1.61-.38,5.51-.68,5.98-2.5ZM913.99,102.01c-27.75-6.45-59.7-7.83-87,.49,24.32,7.21,51.25,8.24,76.21,3.2,2.55-.51,5.55-1.22,8.01-2,1.05-.34,3.02-.26,2.78-1.69ZM780.99,146l4-38c-28.64,8.86-59.98,7.72-88.99,1.01l4,37.99c4.69-2.28,8.64-4.29,13.78-5.71,16.95-4.67,40.16-4.65,56.97.46,3.79,1.15,6.7,2.72,10.23,4.26ZM913.99,112c-28.71,8.19-59.17,7.05-87.99,0l4,37.99c5.87-4.53,13.44-5.86,20.63-6.86,18.85-2.62,41.84-2.39,58.35,7.86l5-39ZM378.99,138.01c-13.6,4.47-28.4,9.66-39.98-2.01,3.17,10.77,16.35,14.57,26.26,10.77l13.72-8.76ZM313,138.01c-13.8,2.88-19.67,28.65-10.49,38.99l10.49-38.99ZM775,149.01c-14.11-5.14-30.53-6.13-45.54-5.05-1.71.12-24.79,3.85-21.46,7.03,20.25,5.33,45.3,5.97,65.54.04,1.45-.43,1.75.57,1.46-2.01ZM262.99,151.01c-12.51-4.11-29.66-4.94-39.99,3.98,13.08-2.44,23.35-4.52,36.79-3.27,1.11.1,3.4,1.18,3.2-.7ZM901,154.99c2.38-3.13-20.73-6.9-22.46-7.03-12.74-.91-30.37-.84-41.53,5.54,1.9,1.21,4.38,1.86,6.57,2.42,11.95,3.08,31.52,3.66,43.81,1.95,4.56-.63,9.1-2.06,13.62-2.89ZM779.99,157c-24.16,8.23-53.97,9.07-77.98,0l10.44,74.05c7.44,7.82,39.95,7.15,50,3.89,7.12-2.31,8.14-4.32,9.45-11.55l8.1-66.39ZM906.99,161c-23.51,8.08-53.11,9.36-75.98-1l8.05,68.44c.24,1.79,1.08,3.38,2.41,4.59,7.98,7.22,44.13,6.68,54.27.72l11.25-72.75ZM366,177.01c-12.27,5.3-24.13,3.37-34.99-4.01l5.65,5.84c8.74,5.33,22.34,6.8,29.34-1.83ZM910.05,217.06c-1.69,7.44-.3,16.92-5.52,22.97-11.32,13.12-59.42,11.45-71.88-.18-6.61-6.18-4.5-23.12-6.66-31.85l-42,.99c-1.71,10.97,1.03,25.37-9.3,32.2-14.53,9.62-47.45,8.7-63.05,1.66-15-6.76-10.06-12.43-14.28-25.94-19.92,3.09-73.74,15.63-27.62,33.84,32.9,13,76.65,14.88,111.8,16.2,43.34,1.62,89.92.21,132.47-9.45,11.56-2.62,60.27-14.91,32.3-30.32-4.55-2.51-33.29-12.97-36.26-10.13ZM754.01,283.99l-32.87-2.85c-5.59,12.32-7.66,30.06-2.63,42.85,2.16,5.48,6.97,8.96,8.39,14.73-2.62,2.52-1.97,3.82.56,7.32,7.71,10.65,30.6,17.33,43.41,15.83.35-3.18,4.82-11.21,2.15-13.38-2.14-1.73-8.12-.35-7.01-5.48,7.73-1.38,15.96-3.38,23.26-6.25,17.27-6.79,47.97-28.23,58.72-43.28,1.03-1.45,6.53-7.89,2.55-8.48-11.78-1.73-24.08,12.14-34.22,17.8-5.51,3.07-11.91,6.28-18.3,6.19-.29-1.56.15-2.32.95-3.54,4.23-6.53,16.23-11.89,21.05-18.44-10.51-1.46-18.9,4.03-28.78,6.71-17.07,4.63-34.59,5.16-45.04,21.96-1.32,2.12-5.25,12.31-6.68,12.3-6.25-5.3,1.64-18.07,5.67-23.31,5.94-7.72,11.2-8.17,8.84-20.68ZM782,286h-16l.51,4.01,8.5-1.5,6.99-2.51ZM368.65,318.65c5.41-6.16,5.58-14.85,2.17-21.98-1.56-3.26-10.3-14.68-9.81-5.29.2,3.79,2.75,8.4,2.41,13.76-.49,7.59-7.69,14.13-14.14,7.58-1.47-1.49-1.36-6.1-3.77-5.76-6.7.95-2.94,11.66.93,15.09,6.55,5.8,17.01,2.51,22.21-3.4ZM517,447l-4.55-.95c-34.34-29.99-75.69-54.15-96.44-96.56-3.2-3.86-4.39,1.3-5.29,3.73-7.08,19.19-3.43,49.23,6.76,66.8,7.67,13.22,8.71,3.7,17.04-3,5.91-4.75,14.56-9.61,22.31-7.34,4.89,1.43,9.45,5.43,2.17,7.34-.96,1.36,23.08,16.57,25.32,18.17,4.5,3.22,31.29,24.54,33.36,24.71,2.69.22,6.86-10.63,7.8-12.93,4.62-11.37,7.84-24.02,8.58-36.3-14.93-5.38-1.83-13.14,8.22-11.43,7.75,1.32,12.67,8.21,19.72,10.76-2.72-12.74-14.61-34.81-25.47-42.09-2.53-1.7-10.93,3.61-13.36,5.75.32,16.89-.15,32.02-4.66,48.34-.73,2.66-5.12,12.67-5.13,13.5-.02,2.65,5.64,7.15,3.62,11.5ZM779.99,370c-15.22,7.66-38.28,1.84-51.32-8.18-4.02-3.09-6.03-6.55-9.24-9.76-.83-.83-.89-1.43-2.42-1.06-1.6,8.5-10.35,24.17-5.47,31.95,9.5,15.12,39.54,29.3,56.52,20.61,8.99-4.6,10.27-24.29,11.93-33.56ZM507.99,430c2.92-16.66,6.8-35,2.07-51.57-6.85-.08-13.65,1.06-20.55.56-19.08-1.38-39.5-11.03-55.5-20.99l10.48,13.01c19.91,21.02,41.96,39.72,63.5,58.99ZM669.01,434.01c-1.14,4.35-3.89,7.95-5.29,12.21-1.11,3.39-3.08,17.24-4.66,18.34-3.9,2.7-5.2-4.16-5.14-7.06.3-13.99,5.67-24.9,12.63-36.52-31.56-17.28-59.98-42.44-95.55-50.97,17.19,35.77,47.84,72.14,38.18,114.41,15.76,10.44,34.7,19.51,53.06,24.85,50.34,14.64,72.62,2.14,93.62-43.91,7.22-15.82,13.53-34.09,15.13-51.36-20.52,7.21-41.35.41-57.46-13.03l-12.02-13.96c-10.08,13.43-18.37,31.12-21.24,47.77-.97,5.6.71,23.22-7.35,17.54l-3.92-18.31ZM289.9,528.68s49.77-29.13,85.85-55.45l3.22-.21c1.95,4.9-2.78,8.59-3.97,12.98,19.95-16.72,22.21-47,17.5-71.01-2.35-12-10.92-35.94-26-36-8.34-.03-71.74,42.09-75.53,43.73l-1.63.89.48-17.71s14.2-9.08,20.86-13.71c25.96-18.03,50.38-30.35,83.22-29.29,2.01-9.41,7.79-18.19,14.06-25.4-3.88-4.39-8.62-8.09-12.47-12.49-3.68-4.21-7.54-14.73-14.5-10.52-.68.41-6.15,10.92-8.59,13.4-17.56,17.78-44.77.87-38.51-22.73-21.25-10.52-34.54-40.37-31.62-63.4.68-5.4,5.82-14.18,5.81-17.26-.01-3.14-3.95-11.89-4.77-16.29-1.26-6.81-1.41-13.09-1.51-20-11.14-6.9-23.95-10.48-37.17-9.08-18.47,1.95-33.04,18.1-49.27,25.73-56.07,26.38-133.44-5.55-126.23-74.23.91-8.7,6.41-24.87,16.18-26.5,3.36.83,4.14,11.92,5.51,15.56,6.83,18.1,28.11,21.78,41.73,8.35,14.98-14.76,16.71-30.85,38.15-44.85,50.49-32.96,100.18-.84,127.23,44.18l2.06.62c14.85-28.93,40.87-52.8,69.35-68.16,33.14-17.87,78.53-25.52,112-4.65,10.39,6.48,5.36,3.16,17.16,3.85,25.15,1.46,54.28,19.81,57.4,46.59,2.01,17.18-3.96,26.66-4.89,40.91-.49,7.5,1.6,16.66,1.04,25.02-.33,4.87-2.49,9.48-2.03,14.46,5.64-.32,9.06-5.55,11.49-10.02l2.51.59c1.21,8.71-5.48,14.78-12.55,18.38l.49,11.39c13.85,6.68,25.78,17.08,31.52,31.69,15.83,40.27-23.13,89.14-51.46,114.48-.03,1.83,10.73,1.35,12.38,1.61,41.14,6.54,73.28,37.57,109.12,55.79,5.69-10.41,10.37-21.69,17.97-30.91,2.01-2.43,5.33-3.87,6.73-6.27,2.02-3.44,3.96-15.51,6.03-20.97,1.92-5.09,3.86-10.36,7.59-14.4-8.52-13.68-10.81-28.76-7.57-44.58,1.05-5.12,3.76-9.68,4.73-14.77-19.93-3.34-62.54-11.99-69.78-33.73-9.34-28.08,39.49-34.69,57.77-37.28l-10.98-102.5c-.19-5.62-.97-9.4,4.27-12.71,13.89-8.77,64.97-7.12,81.94-4.51,5.42.83,17.9,3.33,21.36,7.64,2.71,3.39.78,17.39.41,22.57-1.01,14.24-2.56,28.77-4,43-1.27,12.49-3.14,25.1-4.99,37.51h40l-8.79-97.28c1.54-7,17.27-9.69,23.41-10.6,19.56-2.9,43.05-2.88,62.61.15,6.8,1.06,22.42,3.61,22.6,12.2l-13.82,104.52c20.35,1.24,71.51,13.16,54.82,43.33-11.8,21.34-69.5,30.97-92.33,33.67-2.44.29-4.94-.34-7.37.14-.88,2.1-1.02,4.46-1.94,6.56-8.23,18.69-41.6,44.2-59.97,53.02-3.21,1.54-17.7,6.17-18.68,7.32-3.87,4.54,2.3,7.52,4.21,11.73,6.46,14.32-3.38,28.44-5.5,41.98-.84,5.33.14,11.17-.37,16.63-2.55,27.31-26.22,76.95-47.95,94.05-36.73,28.89-96.16,3.06-131.42-17.39l-19.48,38.58c-.44,6.2,2.98,15.33,2.81,20.93-.11,3.61-3.65,7.08-3.61,8.78.16,6.5,7.34,19.07,7.31,26.67,72.93,55.39,129.21,129.76,173.65,209.35,4.98,8.92,13.34,21.51,11.59,31.94-1.25,7.46-11.39,15.83-11.65,17.38-.13.76,2.29,4.51,2.91,4.9,2.33,1.47,12.12-3.84,15-5.02,2.46-1.01,5.64-.91,7.91-2.09,2.78-1.45,7.56-7.9,10.6-10.4,18.24-15.06,44.94-33.14,67-14.05,18.17,15.73,11.73,39.33,1.65,57.69-15.45,28.12-44.57,48.72-75.17,57.34,10.59,8.9,2.37,16.25-5.48,23.01-17.92,15.45-36.1,18.22-58.98,19.02-91.44,3.22-186.87-2.53-278.01-7.09-18.81-.94-38.45.61-56.53-4.98-.55-5.01,5.26-6.03,8.98-6.99l-8.5-1.98c-51.74-1.72-103.43-4.65-155-8-25.47-1.66-51.91.14-75.85-10.15-51.29-22.06-50.81-76.63-39.64-123.85-1.34-1.04-10.08,8.06-13.56-4.95-3.54-13.26-1.46-31.6,5.75-43.36,11.13-18.14,40.62-27.01,60.8-23.7-1.07-17.49,7.16-18.03,20.99-21.51,26.65-6.71,56.51-8.96,81.68-20.32,13.21-5.96,12.5-7.7,17.04-20.96,8.08-23.59,12.47-48.42,19.79-72.21,10.07-32.7,28.87-60.22,51.3-85.64l-7.3-28.36c-27.76,22.41-53.48,35.95-72.81,45.42M514.72,480.19c-12.11,2.67-6.36,23.91,5.65,17.67,10.12-5.25,4.87-19.99-5.65-17.67ZM510.73,529.19c-11.66,1.55-9.65,20.36,2.68,18.78,11.02-1.41,7.76-20.18-2.68-18.78ZM507.02,568.01c-3,5.58-14.05,20.59-19.75,21.76-7.37,1.51-27.14-2.5-35.31-4.23-33.24-7.04-46.79-18.52-74.82-33.18-1.37-.72-2.26-1.8-4.14-1.35-2.15,2.13,7.95,10.66,9.52,11.96,22.06,18.36,73.42,35.99,101.98,35.1,11.19-.35,18.4-10.85,22.51-20.06,1.8-1.35,4.87,5.19,6.01,6.48,7.59,8.59,10.04,11.78,22.37,10.42,7.35-.81,30.13-8.68,35.15-13.85,1.29-1.33,1.76-2.09,1.46-4.03-8.9,1.68-16.91,6.19-25.99,8.5-5.58,1.42-11.43,2.32-17.14,2.97-2.11-.46-14.35-13.35-16.89-15.95-1.11-1.14-3.34-5.64-4.95-4.52ZM529.99,639l-22.08,16.41-23.95,13.05c-31.4,56.7-61.63,134.27-120.29,167.71-31.56,17.99-81.2,31.56-117.31,35.69-12.03,1.37-15,1.98-24.84-5.88-1.97-1.57-10.96-12.11-12.51-10.98-1.11,5.82-6.48,16.68-4.81,22.29.84,2.81,6.97,4.94,8.67,8.33,1.43,2.84.59,5.9,2.04,7.96.9,1.27,12.01,7.01,15.09,9.91,10.28,9.64,14.02,23.75,4.99,35.5l92.54,1.97c73.9,7.86,150.22,2.97,223.95,9.05,5.08.42,30.34,2.22,31.38,7.62l-2.87,5.36,140.99,6-12.28-23.21c-4.44-7.77-1.05-18.66-3.17-25.83-1.35-4.56-9.12-10.75-10.58-15.94-13.18,7.23-26.37,14.4-40.97,18.48-6.6,1.85-22.8,6.85-28.02,2.02-3.27-3.02-10.34-19.09-12.84-24.16-21.27-43.22-39.51-88.03-62.7-130.3l-70.94-66.09c-1.24-2.17-.17-4.4.45-6.53.79-2.69,9.63-22.11,11.02-23.97,4.05-5.48,22.16-14.81,29.04-20.96,1.77-1.58,11.95-11.33,9.98-13.51ZM177.99,761c-3.66.52-7.28,3.15-9.43,6.06-9.95,13.51-13.75,69.78-8.34,85.21,4.51,12.86,20.91,26.97,30.97,11.42,2.75-4.25,7.31-18.36,6.89-23.21-.29-3.38-6.44-11.84-8.26-15.82-9.26-20.26-13.2-41.34-11.83-63.67ZM866.99,843.01c-15-5.08-26.46,8.28-34.97,18.52-18.16,21.85-26.64,41.8-52.11,57.89-6.34,4-13.76,6.61-19.66,10.32-1.44.91-2.06,2.38-1.25,3.26s19.43-8.52,21.67-9.82c33.93-19.78,45.24-57.61,77.28-78.72l9.04-1.45ZM758,872c-1.51-2.7,1.01-4.22.28-6.69-.67-2.26-8.91-14.7-10.85-17.24-.83-1.09-2.19-3.08-3.76-2.93-2.49.24-27.39,18.81-31.14,21.88-5.72,4.69-12.69,9.99-16.39,16.3.15,1.72,17.89,27.39,19.38,28.66,3.22,2.74,14.77-3.57,18.5-5.47,18.87-9.61,37.48-25.75,48.98-43.51l-25,8.99ZM182.5,896c4.71-.53,10.18.38,15,0l.53-3.53c-11.29-2.88-22.5.37-33.03,4.55,3.45,5.68,12.11-.41,17.5-1.01ZM766.99,950.01l-3.98-.57c-4.85,8.03-13.49,12.21-20.02,18.56,5.28-.99,10.73-4.3,14.92-7.57,1.46-1.14,10.09-9.08,9.08-10.41Z"/>
  <path d="M565,278c-2.6,1.13-4.37-2.62-5.48-2.73-.69-.06-11.37,6-12.06,6.69-1.87,1.85-9.4,27.02-12.27,32.73-15.2,30.3-46.88,41.16-74.2,17.82-15.77-13.47-22.37-36.74-25.99-56.51-5.42-.14-5.55,7.66-10.99,6.99-.29-8.71,5.9-14.85,13.47-18.02,2.69-1.13,18.67-5.93,17.52-.49l-7.99,6.01c2.33,4.55,32.59,10.09,38.51,10.49,22.95,1.58,47.54-.05,68.48-10.01.74-4.64-11.02-7.8-10.97-9.48,10.5-7.98,24.46,4.65,21.97,16.5ZM530.99,287c-20.1,4.24-40.09,3.9-60.18-.32-7.42-1.56-14.31-4.63-21.81-5.68.16,18.24,31.37,23.32,45.5,23.98,11.72.55,38.72-1.33,36.49-17.99ZM500.95,334.95c-.6-13.83-21.05-19.76-32.57-20.83-1.63-.15-9.38-.78-9.36,1.37,8.2,14.36,25.55,23.1,41.93,19.45Z"/>
  <path d="M411.01,189.01c1.61-1.66,9.4,6.21,11.5,6.97,5.32-11.51,11.85-23.52,25.24-26.72,36.48-8.72,56.76,47.19,36.76,71.76-21.83,26.82-60.19,9.3-63.98-22.04-3.64-1.61-7.16-.95-10.88-3.12-2.94-1.72-8.69-8.16-2.25-7.82,2.48.13,11.98,4.79,13.48.34,1.45-4.95-3.15-5.72-5.91-8.84-2.7-3.05-4.5-6.25-3.97-10.52ZM450.74,178.25c-28.44,4.39-30.87,62.71,3,68.52,47.02,8.06,36.09-74.54-3-68.52Z"/>
  <path d="M527.73,187.23c24.39-4.98,23.94,43.79.54,35.99-14.43-4.81-14.68-33.11-.54-35.99Z"/>
  <path d="M445.75,129.26c7.21-.94,20.28,1.79,22.81,9.69,3.6,11.22-13.39,5.43-20.05,6.06-16.25,1.55-15.92,11.7-24.47,19.52-7.2,6.6-7.5-1.95-5.98-7.98,3.28-12.98,13.81-25.48,27.69-27.3Z"/>
  <path d="M513.76,222.25c23.41-2.51,35,26.12,14.17,40.19-6.38,4.31-28.86,5.55-30.84-2.12-1.74-6.76,10.33-2.35,13.3-2.42,22.18-.53,25.35-24.11,3.87-27.66-3.07-.51-12.46.94-13.25-2.77-.61-2.85,10.44-4.98,12.75-5.22Z"/>
  <path d="M363,268c-6.34,2.67-8.26-7.94-12.3-6.89-7.48,1.94-2.58,14.77-3.71,15.89-12.85-.43-9.5-22.3-.01-26.5-3.82-5.19-10.85-9.4-16.96-4.98-2.07,1.49-2.83,6.25-4.51,5.47-4.26-4.18,1.05-12.8,5.21-14.76,15.67-7.37,34.36,17.27,32.27,31.78Z"/>
  <path d="M522.73,122.24c9.48-1.62,22.34,4.23,26.34,13.18,4.52,10.12-8.95,3.59-12.83,2.84-4.39-.85-9.78-.91-14.07.42-3.54,1.1-8.62,6.19-11.18,4.87-6.43-8.78,2.07-19.67,11.73-21.31Z"/>
  <path d="M453.75,198.21c20.41-3.93,25.12,35.8,6.7,38.74-20.83,3.33-25.05-35.21-6.7-38.74Z"/>
  <path id="handmoveme" d="M217.53,397.44c-.43-.42-9.54,4.99-7.84-1.34.47-1.77,8.24-7.32,10.36-9.66,13.61-15.01,14.42-29.49,21.31-46.69,3.5-8.74,22.7-30.48,21.02-37.62-.4-1.69-4.73-5.07-6.55-5.48-12.84-2.94-22.33,11.49-27.47,21.11-1.46,2.73-3.16,10.3-5.24,11.76-2.26,1.58-9.75,1.08-13.55,2.43-13.22,4.7-21.27,17.6-22.91,31.11-.34,2.79,1.2,14.18-2.61,13.37-10.66-13.15-1.75-35.12,9.96-45.02,5.32-4.5,11.33-5.89,16.27-10.46-8.62-19.64-6.53-42.81-11.41-63.36-1.41-5.95-9.18-24.36-14.84-12.16-4.19,9.03-1.13,36.75-.46,47.46.27,4.25-.24,8.66-.1,12.93.32,1.17,7.73.97,6.06,5.6-22.66,5.61-42.26,18.24-58.47,34.76l-3.39-2.22,3.73-6.26-.31-2.23c-8.48-6.94-16.66-15.4-26.24-20.83-6.35-3.6-24.22-12.81-21.08,2.08,2.7,12.77,28.31,24.26,34.51,37.48,9.68,20.64,14.34,38.03,37.9,48.1l20.35,5.66c.38,4.25-9.79,4.04-9.95,5.97,4.29,11.36,7.2,10.63,18.16,8.22,12.07-2.66,29.26-11.99,32.79-24.7ZM157.54,315.43l17.58-6.95c-.92-5.63-2.58-11.13-4.73-16.41-3.8-9.34-19.69-42.25-27.3-46.69-2.71-1.58-5.42-1.72-6.82,1.29-6.71,14.4,17.5,53.7,21.27,68.76ZM152.54,319.42c-9.07-11.3-28.8-49.44-41.97-53.54-10.18-3.18-7.86,6.06-6.18,12.21,5.01,18.36,21.73,36.22,32.13,51.89,1.18,1.2,1.69.1,2.55-.5,4.01-2.78,7.78-9.28,13.47-10.05ZM289.35,423.6c-7.85,4.57-14.33,9.99-19.81,13.34-.32,1.27,7.29,7.11,8.97,9.01,7.34,8.33,14.62,22.17,12.55,33.49l-3.46.94c-3.8-8.81-7.19-18.92-15.05-24.96,1.58,7.13,4.76,37.21-2,40.51-1.11.54-2.18.74-3.39.41l-1.46-1.58c-.54-6.15,1.14-11.61.88-17.9-.61-14.66-6.85-29.15-14.52-41.4-3.98,1.33-3.78,6.02-5.69,9.27-13.83,23.53-45.58,34.71-71.82,29.68,9.31,26.34,28.3,57.74,57.94,63.55,32.91,6.45,38.68,2.3,57.42-9.3l-.21,14.74c-7.34,4.08-11.67,6.06-27.55,7.99-47.26,5.75-82.92-23.74-99.19-64.83-4.32-10.9-7.11-19.04-12-30-5.74-12.88-13.47-31.01-.84-42.18-18.2-8.41-31.66-22.92-39.84-41.14-4.43-9.87-3.52-14.9-12.13-22.87-6.95-6.44-13.58-10.24-19.43-18.57-16.11-22.95-2.31-41.2,23.41-28.92-2.46-7.64-7.51-14.11-9.5-21.99-6.7-26.58,15.62-32.22,32.5-16.01-8.54-25.08,13.44-42.83,31.84-19.33l13.17,22.33c.44-5.27-.61-11.36,0-16.5,3.08-26.03,27.34-25.82,36.48-2.48,5.29,13.5,7.22,41.23,8.51,56.49.27,3.14-.16,6.35.02,9.49l12.34-18.64c7.02-6.39,13.14-10.78,23.15-10.78,17.8,0,25.81,12.44,19.69,29.11-4.02,10.94-15.41,19.87-19.22,30.78-1.65,4.72-1.96,9.79-3.47,14.53-3.41,10.74-7.86,19.42-14.52,28.48,6.95,3.23,10.64,10.74,13.51,17.54,1.5,3.56,3.36,12.68,5.06,14.94,1.21,1.6,6.58,3.41,8.16,5.94,4.15,1.07,23.32-16.28,29.99-20.91l-.48,17.71ZM228.55,399.44c-3,11.62-12.01,20.48-22.09,26.42-9.67,5.7-34.93,14.84-43.95,5.11-1.18-1.27-3.2-8.14-5.5-4.56-2.93,4.56,8.03,30.6,12.48,34.58,11.59,10.36,40.78.95,52.36-6.74,7.43-4.94,21.57-18.7,20.65-28.19-.38-3.86-8.36-22.34-10.95-25.12-.93-1-1.4-1.84-2.99-1.49Z"/>
</svg>